<svg width="24" height="24" xmlns="http://www.w3.org/2000/svg">

 <g>
  <title>background</title>
  <rect fill="none" id="canvas_background" height="602" width="802" y="-1" x="-1"/>
 </g>
 <g>
  <title>Layer 1</title>
  <path id="svg_1" fill="none" d="m0,0l24,0l0,24l-24,0l0,-24z"/>
  <path fill="#ffffff" id="svg_2" d="m13.5,0.67s0.74,2.65 0.74,4.8c0,2.06 -1.35,3.73 -3.41,3.73c-2.07,0 -3.63,-1.67 -3.63,-3.73l0.03,-0.36c-2.02,2.4 -3.23,5.51 -3.23,8.89c0,4.42 3.58,8 8,8s8,-3.58 8,-8c0,-5.39 -2.59,-10.2 -6.5,-13.33zm-1.79,18.33c-1.78,0 -3.22,-1.4 -3.22,-3.14c0,-1.62 1.05,-2.76 2.81,-3.12c1.77,-0.36 3.6,-1.21 4.62,-2.58c0.39,1.29 0.59,2.65 0.59,4.04c0,2.65 -2.15,4.8 -4.8,4.8z"/>
 </g>
</svg>